<?xml version="1.0" standalone="no"?>
<!DOCTYPE svg PUBLIC "-//W3C//DTD SVG 20010904//EN"
 "http://www.w3.org/TR/2001/REC-SVG-20010904/DTD/svg10.dtd">
<svg version="1.0" xmlns="http://www.w3.org/2000/svg"
 width="519.000000pt" height="481.000000pt" viewBox="0 0 519.000000 481.000000"
 preserveAspectRatio="xMidYMid meet">

<g transform="translate(0.000000,481.000000) scale(0.100000,-0.100000)"
fill="#000000" stroke="none">
<path d="M2310 4590 c-47 -5 -123 -17 -170 -25 -47 -9 -100 -19 -117 -22 -18
-3 -31 -8 -29 -12 2 -3 -10 -7 -28 -8 -65 -5 -389 -129 -379 -146 3 -6 1 -7
-5 -3 -23 14 -268 -137 -414 -256 -102 -84 -107 -93 -72 -129 15 -16 29 -27
30 -26 2 2 33 -25 69 -60 l65 -62 36 21 c49 29 113 26 161 -7 21 -14 34 -25
30 -25 -5 0 -1 -10 7 -22 21 -29 20 -81 0 -120 -18 -35 -29 -22 113 -147 l72
-63 47 41 c26 22 51 41 56 41 5 0 6 6 2 13 -4 6 -4 9 1 5 4 -4 33 9 64 29 31
20 85 49 121 65 36 16 78 35 93 43 16 8 35 15 43 15 8 0 22 4 32 9 9 5 51 17
92 26 269 60 630 36 837 -56 24 -11 49 -19 56 -19 7 0 18 -5 24 -11 6 -6 17
-12 24 -13 17 -3 72 -29 79 -36 3 -3 21 -14 41 -23 20 -9 42 -23 48 -31 6 -7
25 -19 42 -26 29 -12 31 -11 73 36 139 155 144 158 161 144 9 -7 40 -15 68
-17 56 -3 90 16 115 64 19 35 14 101 -9 134 l-20 29 51 54 c32 34 49 60 44 67
-4 7 -3 9 3 6 6 -4 25 7 42 25 29 30 30 33 14 50 -9 10 -22 18 -29 18 -7 0
-14 4 -16 8 -4 10 -187 125 -271 170 -32 18 -55 26 -51 19 4 -6 -1 -4 -12 5
-25 22 -233 110 -244 103 -5 -3 -10 -2 -12 2 -9 21 -204 74 -383 104 -138 23
-458 33 -595 19z m127 -172 c15 -7 37 -21 47 -30 23 -21 32 -22 41 -8 14 22
86 50 130 50 55 0 77 -10 128 -58 l37 -36 0 -188 c0 -143 -3 -188 -12 -189
-26 -3 -43 3 -51 17 -14 24 -64 44 -112 44 -38 0 -52 -5 -75 -29 -39 -38 -74
-47 -98 -23 -39 39 -67 52 -114 52 -39 0 -54 -6 -84 -32 -20 -17 -45 -32 -55
-33 -18 -2 -19 8 -19 190 l0 191 38 36 c20 19 46 40 57 46 27 15 108 15 142 0z"/>
<path d="M4068 3867 l-96 -103 24 -27 c47 -55 44 -144 -7 -193 -27 -26 -37
-29 -94 -29 -48 0 -68 5 -84 19 -19 17 -23 18 -34 5 -7 -8 -44 -46 -81 -85
l-67 -71 45 -53 c61 -72 126 -170 170 -258 50 -100 70 -157 118 -337 9 -34 13
-116 13 -255 -1 -191 -3 -212 -28 -310 -45 -170 -139 -380 -203 -451 -12 -14
0 -27 102 -114 95 -82 114 -103 108 -120 -3 -11 -8 -37 -11 -57 -9 -68 56
-138 128 -138 11 0 36 7 55 16 l34 16 72 -63 c40 -35 79 -70 86 -77 8 -7 17
-10 22 -7 11 7 125 180 172 261 127 218 209 460 254 749 34 214 19 577 -31
770 -78 299 -156 477 -305 701 -40 60 -76 111 -79 114 -3 3 -24 28 -46 55 -53
66 -126 145 -135 145 -4 0 -50 -46 -102 -103z m500 -963 c67 -33 108 -81 128
-150 36 -124 -17 -244 -131 -298 -124 -59 -262 -11 -327 113 -110 210 117 441
330 335z m-346 -551 c-67 -64 -93 -83 -115 -83 -33 0 -53 17 -63 54 -5 23 4
37 81 116 l88 89 47 -47 48 -47 -86 -82z"/>
<path d="M4372 2841 c-101 -53 -123 -201 -44 -284 96 -101 263 -63 302 70 26
85 -13 178 -91 219 -38 19 -126 17 -167 -5z m141 -25 c48 -20 87 -70 87 -113
0 -27 -4 -34 -17 -31 -9 2 -20 16 -24 32 -11 38 -35 63 -75 76 -32 11 -43 28
-27 43 9 10 20 9 56 -7z"/>
<path d="M821 3783 c-274 -372 -419 -778 -438 -1223 -20 -489 134 -968 443
-1370 40 -52 89 -111 108 -130 36 -34 36 -34 54 -15 10 11 47 50 81 87 l63 67
-25 30 c-50 59 -47 129 8 186 29 32 37 35 88 35 44 0 61 -5 85 -25 l30 -25
100 109 101 108 -25 24 c-40 38 -150 207 -188 291 -78 170 -116 352 -116 547
0 271 75 523 223 750 l41 64 -88 82 c-54 50 -84 85 -78 89 20 12 32 79 22 117
-12 43 -43 73 -93 89 -34 10 -43 9 -85 -12 l-47 -23 -108 98 c-60 53 -112 97
-115 97 -4 -1 -22 -22 -41 -47z m-124 -1023 c6 -24 39 -36 58 -20 25 20 50 -3
50 -47 0 -34 3 -38 26 -41 19 -2 28 -10 31 -25 6 -30 -1 -47 -17 -47 -20 0
-27 -31 -10 -50 18 -20 18 -30 1 -53 -11 -15 -19 -16 -34 -8 -24 13 -42 -3
-42 -36 0 -16 -9 -27 -26 -35 -24 -11 -29 -10 -42 10 -18 28 -36 28 -53 1 -12
-18 -18 -19 -43 -10 -21 9 -27 16 -23 31 6 23 -17 45 -39 36 -37 -14 -57 34
-31 75 10 17 9 22 -11 38 -32 24 -27 65 8 70 32 4 41 20 28 44 -15 29 21 64
50 48 31 -16 42 -14 52 14 12 32 59 36 67 5z m323 -81 c7 -11 18 -18 25 -15
17 6 31 -12 27 -37 -2 -9 4 -20 12 -23 21 -8 20 -19 -5 -43 -14 -13 -17 -21
-9 -26 15 -9 -9 -38 -26 -31 -8 3 -18 -4 -24 -14 -13 -24 -36 -26 -44 -4 -5
12 -9 14 -20 5 -18 -15 -49 -3 -42 16 4 9 -1 17 -13 20 -24 6 -36 34 -19 44
10 7 10 13 1 27 -13 21 -6 35 20 45 10 4 17 15 15 24 -2 15 3 18 30 15 17 -1
32 2 32 8 0 18 29 10 40 -11z m-108 -215 c14 -14 20 -14 33 -4 19 16 45 -3 45
-31 0 -12 10 -23 25 -29 27 -10 32 -29 13 -48 -9 -9 -8 -17 2 -37 15 -28 8
-41 -25 -47 -12 -2 -21 -13 -24 -28 -4 -34 -22 -42 -44 -22 -18 16 -20 16 -32
-1 -17 -24 -55 -22 -55 3 0 15 -7 20 -29 20 -32 0 -41 14 -34 53 4 20 1 27
-11 27 -23 0 -20 37 4 50 15 8 19 17 14 34 -6 24 19 55 30 37 10 -16 36 -1 36
20 0 24 27 25 52 3z"/>
<path d="M635 2658 c-70 -38 -57 -135 20 -154 50 -12 104 50 90 103 -5 22 -58
63 -80 63 -5 0 -19 -6 -30 -12z"/>
<path d="M946 2608 c-13 -19 -14 -25 -2 -43 7 -11 22 -21 34 -23 24 -4 53 33
44 57 -13 37 -53 42 -76 9z"/>
<path d="M862 2378 c-17 -17 -15 -64 4 -82 33 -34 94 -4 94 46 0 40 -69 65
-98 36z"/>
<path d="M2580 3610 c-14 -4 -70 -33 -125 -65 -55 -32 -129 -75 -165 -95 -36
-20 -112 -63 -170 -97 -58 -33 -124 -71 -146 -84 -320 -183 -337 -194 -350
-226 -18 -41 -20 -483 -3 -515 8 -15 8 -26 0 -42 -9 -15 -11 -94 -9 -263 3
-237 3 -242 26 -266 13 -14 94 -66 180 -115 87 -49 213 -122 282 -162 69 -40
145 -84 170 -98 25 -14 89 -51 142 -83 148 -88 176 -101 208 -94 15 3 79 36
142 72 62 36 131 75 153 87 22 13 105 61 185 107 80 47 219 128 308 180 115
66 168 102 178 122 12 22 14 73 10 275 -5 296 -5 228 0 523 3 148 1 256 -5
272 -10 26 -57 56 -411 259 -91 52 -245 141 -343 197 -190 110 -218 122 -257
111z m291 -666 c17 -21 14 -66 -7 -81 -44 -32 -97 -3 -92 51 5 49 67 68 99 30z
m-407 0 c25 -25 20 -71 -10 -91 -24 -15 -29 -15 -53 -2 -16 9 -27 25 -29 43
-6 53 55 87 92 50z m92 -179 c8 -19 14 -39 14 -45 0 -14 -43 -13 -58 2 -8 8
-15 8 -24 0 -7 -5 -26 -12 -43 -14 -26 -3 -30 -7 -33 -37 -3 -29 -1 -33 11
-23 12 10 16 8 22 -10 4 -13 7 -26 6 -30 -1 -5 17 -8 39 -8 66 0 87 -16 110
-83 23 -71 25 -97 7 -97 -16 0 -33 34 -42 84 -7 37 -25 50 -25 19 0 -10 11
-53 25 -96 30 -94 31 -107 5 -107 -17 0 -19 -8 -22 -87 -3 -80 -5 -88 -23 -88
-18 0 -20 8 -23 88 -4 112 -22 106 -22 -8 0 -64 -3 -84 -15 -88 -19 -8 -30 10
-31 53 -3 119 -4 130 -18 130 -27 0 -26 17 3 114 15 53 25 99 20 101 -4 3 -16
-20 -26 -51 -16 -51 -35 -75 -49 -61 -12 12 38 147 59 162 15 10 17 15 7 15
-19 0 -37 -29 -61 -94 l-18 -51 -2 60 c-2 53 -3 50 -8 -30 -5 -71 -9 -90 -21
-90 -12 0 -16 17 -18 78 -2 42 -7 77 -12 77 -6 0 -11 -85 -12 -202 -3 -202 -3
-203 -25 -206 -23 -3 -23 -2 -23 122 0 165 -18 168 -22 4 -3 -119 -4 -123 -25
-126 l-23 -3 0 200 c0 122 -4 202 -10 206 -6 4 -10 -19 -10 -63 0 -46 -5 -73
-13 -81 -22 -18 -27 -2 -27 90 0 115 4 119 117 119 68 0 91 -4 106 -17 19 -17
20 -17 14 -1 -3 10 0 39 8 65 17 57 18 73 5 73 -5 0 -17 -25 -25 -55 -15 -50
-19 -55 -45 -55 -26 0 -28 2 -20 28 5 15 17 54 27 87 23 73 43 85 130 81 35
-2 63 1 63 5 0 22 63 -25 76 -56z m381 55 c46 -17 70 -84 38 -110 -8 -7 -15
-21 -15 -32 0 -10 7 -21 15 -24 23 -9 18 -40 -10 -58 l-25 -16 0 69 c0 38 -4
73 -10 76 -6 4 -10 -34 -11 -107 -1 -125 -16 -209 -18 -100 -1 53 -5 67 -26
87 -15 16 -35 25 -56 25 -30 0 -31 1 -16 18 19 21 22 57 7 67 -5 3 -10 15 -10
26 0 26 -41 26 -65 -1 -17 -19 -24 -59 -14 -89 4 -14 -44 -34 -55 -23 -11 10
-6 127 7 152 7 13 24 30 37 37 31 15 185 17 227 3z m-693 -116 c29 -28 15 -64
-25 -64 -30 0 -50 24 -41 50 11 32 42 39 66 14z m556 1 c14 -17 5 -51 -17 -59
-42 -17 -83 35 -47 61 23 17 49 17 64 -2z m-286 -4 c3 -5 15 -7 26 -4 14 4 20
0 20 -12 0 -14 -3 -15 -15 -5 -13 11 -15 8 -15 -13 0 -14 -5 -29 -11 -33 -8
-4 -7 -9 2 -16 9 -5 3 -6 -16 -2 -39 9 -55 22 -55 46 0 14 -5 18 -15 14 -9 -3
-15 0 -15 10 0 11 6 15 19 11 10 -2 25 -1 32 4 18 11 36 11 43 0z m582 -1 c8
0 14 -5 14 -11 0 -6 -7 -9 -15 -5 -11 4 -15 -1 -15 -18 0 -54 -66 -59 -77 -6
-4 21 -10 27 -22 23 -11 -4 -13 -3 -6 5 14 14 45 21 79 16 16 -2 35 -4 42 -4z
m-496 -68 c5 -20 10 -47 10 -60 0 -21 -2 -21 -35 12 -37 37 -45 66 -20 66 8 0
15 7 15 16 0 26 19 5 30 -34z m270 -32 c18 -18 20 -31 18 -108 -2 -69 -6 -87
-18 -87 -12 0 -16 17 -18 78 -2 42 -7 77 -12 77 -6 0 -10 -78 -10 -197 l0
-198 -25 0 -25 0 0 118 c0 64 -4 117 -9 117 -11 0 -21 -85 -15 -135 7 -63 -3
-101 -26 -101 -24 0 -31 22 -28 86 5 108 -2 314 -11 305 -6 -6 -11 -41 -13
-79 -2 -44 -8 -71 -15 -74 -10 -3 -13 21 -13 97 0 120 0 120 118 121 69 0 85
-3 102 -20z m252 -17 c18 -22 48 -108 48 -140 0 -52 -40 -5 -55 65 -3 17 -11
32 -16 32 -13 0 -12 -12 16 -110 30 -107 30 -100 5 -100 -19 0 -20 -7 -20 -90
0 -74 -3 -92 -16 -97 -25 -9 -34 16 -34 100 0 44 -4 77 -10 77 -6 0 -10 -35
-10 -85 0 -69 -3 -87 -16 -92 -25 -10 -34 16 -34 105 0 76 -2 82 -20 82 -23 0
-23 3 16 130 22 71 24 95 5 74 -4 -5 -14 -31 -21 -58 -9 -31 -20 -50 -31 -53
-17 -5 -19 -20 -21 -142 l-3 -136 -30 0 -30 0 -3 127 c-2 118 -1 126 16 122
26 -7 45 21 71 106 13 41 30 81 39 88 25 19 136 16 154 -5z m-727 -193 c-16
-57 -17 -70 -1 -76 13 -5 16 -22 16 -90 0 -46 -2 -84 -4 -84 -2 0 -11 -3 -19
-6 -8 -3 -22 2 -31 11 -13 13 -16 39 -16 134 0 65 3 120 6 123 3 3 16 5 29 4
17 -1 23 -6 20 -16z"/>
<path d="M3515 1458 c-175 -143 -385 -243 -580 -278 -38 -6 -80 -14 -92 -16
-22 -4 -23 -6 -16 -97 13 -175 12 -179 -24 -189 -17 -4 -43 -22 -57 -39 -21
-25 -26 -41 -26 -86 0 -51 3 -59 35 -89 22 -20 48 -34 68 -36 l32 -3 6 -110
c4 -60 7 -117 8 -126 1 -14 10 -14 93 -2 351 52 694 198 978 418 64 49 97 77
175 148 l40 37 -40 37 c-23 21 -60 55 -84 77 l-43 39 -38 -22 c-125 -70 -254
48 -193 176 l16 35 -41 37 c-22 20 -67 59 -99 87 l-58 50 -60 -48z m-30 -180
c4 -18 9 -41 11 -50 4 -13 0 -18 -14 -18 -18 0 -38 -37 -27 -49 3 -2 5 1 5 7
0 7 8 12 18 11 12 0 38 -44 90 -152 69 -142 73 -152 55 -164 -16 -13 -24 -2
-93 137 -41 82 -77 150 -80 150 -3 0 -18 -37 -34 -82 -30 -91 -37 -114 -29
-98 11 22 25 6 69 -81 36 -72 43 -94 32 -100 -23 -15 -27 -11 -70 75 -38 76
-45 85 -76 91 -18 3 -40 9 -48 12 -8 3 -14 -1 -14 -8 0 -32 -64 -189 -77 -189
-26 0 -23 26 15 135 40 117 41 118 102 101 25 -7 27 -4 65 109 31 93 36 118
26 125 -10 6 -6 15 20 39 19 17 37 31 41 31 3 0 9 -15 13 -32z m24 -315 c59
-120 62 -128 45 -140 -17 -12 -23 -4 -76 102 -43 85 -57 122 -52 140 3 14 9
25 13 25 3 0 35 -57 70 -127z m-126 -110 c46 -89 47 -93 27 -103 -18 -10 -24
-2 -70 90 -27 55 -50 102 -50 106 0 3 10 4 23 2 17 -2 34 -25 70 -95z m-221
-99 l61 -122 36 17 c20 9 118 58 217 108 100 51 184 89 188 86 23 -24 -7 -44
-224 -153 -148 -74 -233 -111 -239 -105 -14 15 -151 288 -151 302 0 19 24 22
38 4 7 -8 40 -70 74 -137z m154 55 c35 -70 38 -99 11 -99 -28 0 -81 143 -60
163 10 11 11 10 49 -64z m-41 -98 c6 -22 -7 -40 -26 -41 -14 0 -30 58 -23 85
l7 28 18 -24 c10 -13 21 -35 24 -48z"/>
</g>
</svg>
